<?xml version="1.0" standalone="no"?>
<!DOCTYPE svg PUBLIC "-//W3C//DTD SVG 20010904//EN"
 "http://www.w3.org/TR/2001/REC-SVG-20010904/DTD/svg10.dtd">
<svg version="1.0" xmlns="http://www.w3.org/2000/svg"
 width="880.000000pt" height="880.000000pt" viewBox="0 0 880.000000 880.000000"
 preserveAspectRatio="xMidYMid meet">

<g transform="translate(0.000000,880.000000) scale(0.100000,-0.100000)"
fill="#000000" stroke="none">
<path d="M1314 5142 c-6 -4 -116 -144 -244 -311 -226 -295 -232 -304 -214
-321 11 -10 126 -102 256 -204 l238 -185 237 186 c131 102 246 193 257 203 17
17 11 27 -199 301 -120 156 -229 296 -243 312 -25 26 -64 35 -88 19z"/>
<path d="M3050 4912 c-19 -9 -43 -31 -53 -49 -15 -26 -111 -284 -251 -671
l-26 -73 112 3 111 3 32 90 33 90 213 0 213 0 30 -92 30 -93 113 0 c62 0 113
4 113 8 0 16 -241 667 -266 718 -36 75 -60 84 -231 84 -111 0 -145 -3 -173
-18z m207 -138 c24 -7 25 -10 81 -181 l41 -123 -158 0 -158 0 49 143 c27 78
56 148 65 155 18 13 45 15 80 6z"/>
<path d="M3860 4525 l0 -405 105 0 105 0 0 145 0 145 118 0 c177 1 308 16 361
42 70 36 86 76 86 218 0 237 -48 259 -572 260 l-203 0 0 -405z m549 221 c17
-15 21 -31 21 -75 0 -31 -4 -61 -8 -68 -16 -25 -68 -33 -208 -33 l-144 0 0
101 0 101 159 -4 c139 -3 162 -5 180 -22z"/>
<path d="M4994 4916 c-17 -8 -40 -30 -52 -49 -20 -34 -272 -717 -272 -737 0
-6 44 -10 110 -10 63 0 110 4 110 9 0 6 14 48 31 95 l31 86 212 0 212 0 30
-92 30 -93 117 -3 117 -3 -11 28 c-6 15 -65 177 -131 358 -66 182 -129 345
-140 364 -12 18 -36 40 -54 47 -45 19 -296 19 -340 0z m218 -148 c9 -7 35 -71
58 -143 24 -71 45 -136 48 -142 3 -10 -31 -13 -152 -13 -86 0 -156 3 -156 7 0
24 96 280 108 291 9 6 30 12 47 12 17 0 38 -6 47 -12z"/>
<path d="M5627 4923 c-4 -3 -7 -39 -7 -80 l0 -73 160 0 160 0 0 -325 0 -325
105 0 105 0 0 325 0 325 155 0 155 0 0 80 0 80 -413 0 c-228 0 -417 -3 -420
-7z"/>
<path d="M6780 4923 c-68 -12 -105 -27 -141 -60 -56 -51 -70 -105 -76 -293 -9
-266 19 -362 118 -413 49 -25 74 -30 197 -39 102 -8 182 -8 283 0 276 21 319
76 319 408 0 284 -42 364 -204 393 -56 10 -442 13 -496 4z m422 -162 c53 -20
63 -50 66 -216 4 -169 -6 -215 -51 -249 -26 -19 -42 -21 -190 -21 -247 0 -252
5 -252 245 0 210 11 235 115 251 60 10 278 3 312 -10z"/>
<path d="M7680 4526 l0 -406 100 0 100 0 0 145 0 145 94 0 94 0 87 -132 c48
-73 90 -139 94 -146 6 -9 38 -12 125 -10 l118 3 -110 147 c-60 81 -107 150
-104 153 3 3 14 5 26 5 11 0 39 9 62 21 68 32 89 86 89 224 0 118 -9 147 -59
194 -46 43 -109 52 -423 58 l-293 6 0 -407z m551 215 c26 -32 26 -110 0 -142
-19 -23 -25 -24 -185 -27 l-166 -3 0 101 0 102 166 -4 c160 -3 166 -4 185 -27z"/>
<path d="M592 4206 c-192 -249 -242 -321 -242 -345 0 -34 3 -37 275 -250 129
-101 188 -141 207 -141 20 0 89 49 265 186 131 102 239 189 241 194 2 6 -446
604 -498 663 -4 4 -116 -134 -248 -307z"/>
<path d="M1608 4185 l-257 -334 244 -191 c179 -139 251 -190 271 -190 19 0 82
43 228 157 249 194 256 200 256 234 0 20 -60 106 -231 331 -128 167 -237 309
-243 315 -9 10 -70 -64 -268 -322z"/>
<path d="M2722 3813 l3 -38 78 -3 77 -3 0 -159 0 -160 50 0 50 0 0 160 0 160
80 0 80 0 0 40 0 40 -211 0 -210 0 3 -37z"/>
<path d="M3210 3650 l0 -200 165 0 165 0 0 35 0 35 -115 0 -115 0 0 50 0 50
105 0 105 0 0 35 0 35 -105 0 -105 0 0 40 0 39 113 3 112 3 3 38 3 37 -165 0
-166 0 0 -200z"/>
<path d="M3640 3650 l0 -200 170 0 170 0 0 35 0 35 -120 0 -120 0 0 165 0 165
-50 0 -50 0 0 -200z"/>
<path d="M4050 3650 l0 -200 170 0 170 0 0 35 0 35 -120 0 -120 0 0 50 0 50
105 0 105 0 0 35 0 35 -105 0 -105 0 0 40 0 40 115 0 115 0 0 40 0 40 -165 0
-165 0 0 -200z"/>
<path d="M4496 3828 c-5 -25 -36 -333 -36 -361 0 -14 9 -17 45 -17 40 0 45 3
46 23 0 12 6 80 12 151 l12 128 53 -136 c29 -75 60 -143 68 -151 18 -17 144
-21 173 -5 10 5 44 71 77 150 l59 141 12 -138 c6 -76 12 -144 12 -150 1 -9 18
-13 50 -13 l49 0 -4 38 c-9 82 -34 335 -34 349 0 11 -15 13 -72 11 l-72 -3
-66 -153 c-36 -83 -72 -158 -78 -164 -20 -20 -37 8 -99 167 l-58 150 -72 3
c-68 3 -73 2 -77 -20z"/>
<path d="M5230 3650 l0 -200 165 0 165 0 0 35 0 35 -115 0 -115 0 0 50 0 50
100 0 100 0 0 35 0 35 -100 0 -100 0 0 40 0 39 113 3 112 3 3 38 3 37 -165 0
-166 0 0 -200z"/>
<path d="M5610 3810 l0 -40 75 0 75 0 0 -160 0 -160 50 0 50 0 0 160 0 160 80
0 80 0 0 40 0 40 -205 0 -205 0 0 -40z"/>
<path d="M6090 3651 l0 -201 50 0 50 0 0 75 0 75 45 0 c44 0 45 0 95 -75 l51
-75 55 0 55 0 -22 33 c-12 17 -37 51 -56 74 l-33 41 29 7 c42 9 63 38 69 94 5
60 -12 117 -41 133 -14 8 -82 14 -184 16 l-163 4 0 -201z m278 107 c7 -7 12
-24 12 -38 0 -42 -17 -50 -107 -50 l-83 0 0 50 0 50 83 0 c51 0 88 -5 95 -12z"/>
<path d="M6590 3650 l0 -200 50 0 50 0 0 200 0 200 -50 0 -50 0 0 -200z"/>
<path d="M6916 3832 c-13 -15 -146 -359 -146 -378 0 -2 24 -4 54 -4 l53 0 13
45 13 45 112 0 112 0 13 -45 13 -45 53 0 c37 0 54 4 53 13 -1 26 -125 348
-142 367 -14 17 -29 20 -100 20 -69 0 -87 -3 -101 -18z m156 -134 l27 -78 -83
0 -84 0 25 68 c13 37 26 73 28 80 3 8 16 12 32 10 25 -3 31 -11 55 -80z"/>
</g>
</svg>
