<svg xmlns="http://www.w3.org/2000/svg" width="1173.333" height="1173.333" version="1.0" viewBox="0 0 880 880"><path d="M131.4 365.8c-.6.4-11.6 14.4-24.4 31.1-22.6 29.5-23.2 30.4-21.4 32.1 1.1 1 12.6 10.2 25.6 20.4l23.8 18.5 23.7-18.6c13.1-10.2 24.6-19.3 25.7-20.3 1.7-1.7 1.1-2.7-19.9-30.1-12-15.6-22.9-29.6-24.3-31.2-2.5-2.6-6.4-3.5-8.8-1.9m173.6 23c-1.9.9-4.3 3.1-5.3 4.9-1.5 2.6-11.1 28.4-25.1 67.1l-2.6 7.3 11.2-.3 11.1-.3 3.2-9 3.3-9h42.6l3 9.2 3 9.3h11.3c6.2 0 11.3-.4 11.3-.8 0-1.6-24.1-66.7-26.6-71.8-3.6-7.5-6-8.4-23.1-8.4-11.1 0-14.5.3-17.3 1.8m20.7 13.8c2.4.7 2.5 1 8.1 18.1l4.1 12.3h-31.6l4.9-14.3c2.7-7.8 5.6-14.8 6.5-15.5 1.8-1.3 4.5-1.5 8-.6m60.3 24.9V468h21v-29h11.8c17.7-.1 30.8-1.6 36.1-4.2 7-3.6 8.6-7.6 8.6-21.8 0-23.7-4.8-25.9-57.2-26H386zm54.9-22.1c1.7 1.5 2.1 3.1 2.1 7.5 0 3.1-.4 6.1-.8 6.8-1.6 2.5-6.8 3.3-20.8 3.3H407v-20.2l15.9.4c13.9.3 16.2.5 18 2.2m58.5-17c-1.7.8-4 3-5.2 4.9-2 3.4-27.2 71.7-27.2 73.7 0 .6 4.4 1 11 1 6.3 0 11-.4 11-.9 0-.6 1.4-4.8 3.1-9.5l3.1-8.6h42.4l3 9.2 3 9.3 11.7.3 11.7.3-1.1-2.8c-.6-1.5-6.5-17.7-13.1-35.8-6.6-18.2-12.9-34.5-14-36.4-1.2-1.8-3.6-4-5.4-4.7-4.5-1.9-29.6-1.9-34 0m21.8 14.8c.9.7 3.5 7.1 5.8 14.3 2.4 7.1 4.5 13.6 4.8 14.2.3 1-3.1 1.3-15.2 1.3-8.6 0-15.6-.3-15.6-.7 0-2.4 9.6-28 10.8-29.1.9-.6 3-1.2 4.7-1.2s3.8.6 4.7 1.2m41.5-15.5c-.4.3-.7 3.9-.7 8v7.3h32v65h21v-65h31v-16h-41.3c-22.8 0-41.7.3-42 .7m115.3 0c-6.8 1.2-10.5 2.7-14.1 6-5.6 5.1-7 10.5-7.6 29.3-.9 26.6 1.9 36.2 11.8 41.3 4.9 2.5 7.4 3 19.7 3.9 10.2.8 18.2.8 28.3 0 27.6-2.1 31.9-7.6 31.9-40.8 0-28.4-4.2-36.4-20.4-39.3-5.6-1-44.2-1.3-49.6-.4m42.2 16.2c5.3 2 6.3 5 6.6 21.6.4 16.9-.6 21.5-5.1 24.9-2.6 1.9-4.2 2.1-19 2.1-24.7 0-25.2-.5-25.2-24.5 0-21 1.1-23.5 11.5-25.1 6-1 27.8-.3 31.2 1m47.8 23.5V468h20v-29h18.8l8.7 13.2c4.8 7.3 9 13.9 9.4 14.6.6.9 3.8 1.2 12.5 1l11.8-.3-11-14.7c-6-8.1-10.7-15-10.4-15.3s1.4-.5 2.6-.5c1.1 0 3.9-.9 6.2-2.1 6.8-3.2 8.9-8.6 8.9-22.4 0-11.8-.9-14.7-5.9-19.4-4.6-4.3-10.9-5.2-42.3-5.8l-29.3-.6zm55.1-21.5c2.6 3.2 2.6 11 0 14.2-1.9 2.3-2.5 2.4-18.5 2.7l-16.6.3v-20.3l16.6.4c16 .3 16.6.4 18.5 2.7M59.2 459.4C40 484.3 35 491.5 35 493.9c0 3.4.3 3.7 27.5 25C75.4 529 81.3 533 83.2 533c2 0 8.9-4.9 26.5-18.6 13.1-10.2 23.9-18.9 24.1-19.4.2-.6-44.6-60.4-49.8-66.3-.4-.4-11.6 13.4-24.8 30.7m101.6 2.1-25.7 33.4 24.4 19.1c17.9 13.9 25.1 19 27.1 19 1.9 0 8.2-4.3 22.8-15.7 24.9-19.4 25.6-20 25.6-23.4 0-2-6-10.6-23.1-33.1-12.8-16.7-23.7-30.9-24.3-31.5-.9-1-7 6.4-26.8 32.2m111.4 37.2.3 3.8 7.8.3 7.7.3V535h10v-32h16v-8h-42.1zM321 515v20h33v-7h-23v-10h21v-7h-21v-7.9l11.3-.3 11.2-.3.3-3.8.3-3.7H321zm43 0v20h34v-7h-24v-33h-10zm41 0v20h34v-7h-24v-10h21v-7h-21v-8h23v-8h-33zm44.6-17.8c-.5 2.5-3.6 33.3-3.6 36.1 0 1.4.9 1.7 4.5 1.7 4 0 4.5-.3 4.6-2.3 0-1.2.6-8 1.2-15.1l1.2-12.8 5.3 13.6c2.9 7.5 6 14.3 6.8 15.1 1.8 1.7 14.4 2.1 17.3.5 1-.5 4.4-7.1 7.7-15l5.9-14.1 1.2 13.8c.6 7.6 1.2 14.4 1.2 15 .1.9 1.8 1.3 5 1.3h4.9l-.4-3.8c-.9-8.2-3.4-33.5-3.4-34.9 0-1.1-1.5-1.3-7.2-1.1l-7.2.3-6.6 15.3c-3.6 8.3-7.2 15.8-7.8 16.4-2 2-3.7-.8-9.9-16.7l-5.8-15-7.2-.3c-6.8-.3-7.3-.2-7.7 2M523 515v20h33v-7h-23v-10h20v-7h-20v-7.9l11.3-.3 11.2-.3.3-3.8.3-3.7H523zm38-16v4h15v32h10v-32h16v-8h-41zm48 15.9V535h10v-15h4.5c4.4 0 4.5 0 9.5 7.5l5.1 7.5h11l-2.2-3.3c-1.2-1.7-3.7-5.1-5.6-7.4l-3.3-4.1 2.9-.7c4.2-.9 6.3-3.8 6.9-9.4.5-6-1.2-11.7-4.1-13.3-1.4-.8-8.2-1.4-18.4-1.6l-16.3-.4zm27.8-10.7c.7.7 1.2 2.4 1.2 3.8 0 4.2-1.7 5-10.7 5H619v-10h8.3c5.1 0 8.8.5 9.5 1.2M659 515v20h10v-40h-10zm32.6-18.2c-1.3 1.5-14.6 35.9-14.6 37.8 0 .2 2.4.4 5.4.4h5.3l1.3-4.5 1.3-4.5h22.4l1.3 4.5 1.3 4.5h5.3c3.7 0 5.4-.4 5.3-1.3-.1-2.6-12.5-34.8-14.2-36.7-1.4-1.7-2.9-2-10-2-6.9 0-8.7.3-10.1 1.8m15.6 13.4 2.7 7.8h-16.7l2.5-6.8c1.3-3.7 2.6-7.3 2.8-8 .3-.8 1.6-1.2 3.2-1 2.5.3 3.1 1.1 5.5 8"/></svg>