<svg xmlns="http://www.w3.org/2000/svg" width="2730.667" height="2730.667" version="1.0" viewBox="0 0 2048 2048"><path d="M988 1.1C796.3 7.6 610.6 67.9 451.3 175.6c-76.4 51.6-147.6 115.5-208.4 186.9C142.4 480.6 68.7 624 31.1 774.5c-29.5 118.2-37.8 240.9-24.6 362 18 164.1 76 322.3 168.3 459 38.2 56.5 76.3 102.6 125.7 152.1 80.3 80.4 165.8 142 267.5 192.7 125.2 62.6 253.8 96.7 399 105.8 24.1 1.5 89.2 1.5 114 0 143.2-8.7 273.2-43.1 398-105.2 57.2-28.5 105.6-58.2 156-95.7 61.2-45.6 119.6-100.4 170.1-159.7 84.5-99.4 150.9-218 191.8-342.8 27.7-84.5 43.2-167.1 49.2-261.7 2.5-39.4 1.3-104-2.6-149-14-157.8-65.5-312.2-149-446.7-141-226.8-363.7-389.7-621.3-454.3-71.6-17.9-139.5-27.3-217.5-30-30.8-1.1-34.5-1-67.7.1m96 66.9c192.4 12.8 369.5 79.1 522 195.4 57.1 43.6 113 97.7 159.5 154.5 87.9 107.5 151.7 233.3 186 366.6 15.2 59.2 24 115.3 28.6 181.5.7 9.6 1.3 35.7 1.3 58 0 41.1-.9 59.3-4.5 96-14.8 151-66 296.8-149.3 425-52.4 80.8-116.9 153.3-192.4 216.2-89.6 74.8-195.2 133.6-307.5 171.3-78.1 26.2-157.4 41.6-246.2 47.7-38.6 2.6-105 1.4-148.5-2.8-252.5-24.1-483-146.1-645.7-341.5-81.7-98.2-143.9-213.7-180.4-335.1C57.7 1136.9 53.1 963 93.5 796.5c48.6-200.4 163.3-382.2 324.4-514 114.2-93.4 249-159.6 391.1-191.9 62.6-14.2 108.7-20.2 183.5-24 12.4-.6 75.5.3 91.5 1.4"/><path d="M935 128.1c-19.9 1.4-57.4 4.9-58 5.5-.4.4-10 247.5-9.6 248.1.1 0 3.6-.5 7.8-1.2 4.2-.8 17.5-2.6 29.5-4 12-1.5 21.9-2.8 22.1-3 .7-.7 6.3-164.5 5.8-171.3-.5-7.8.5-8.7 2.3-2 .6 2.4 13.8 32.6 29.4 67.3l28.4 63h51.5l27.4-61c15.1-33.6 28.4-63.7 29.6-67s2.4-6.3 2.7-6.7c.4-.4.5 3.6.3 9-.3 10 5.2 167.9 5.9 168.6.2.2 6.7 1.2 14.4 2 15.4 1.8 41.1 5.4 43.5 6.1 1.3.4.9-15.1-3.1-123.5-2.5-68.2-4.7-124.1-5-124.4-1.3-1.3-82.3-7.6-83.4-6.4-1.3 1.3-55.1 135.3-56.5 140.8l-1.7 6.5-1.2-5.4c-.6-2.9-13.6-36.1-28.8-73.7L960.6 127l-6.6.1c-3.6.1-12.1.6-19 1m593.8 157.6c-8.7 13.3-126.9 198.5-127.4 199.6-.3.9 2.7 3.9 8.3 8.4 7.4 5.8 18.7 15.3 39.3 33.1l3.9 3.2 61.3-31.6c33.7-17.4 63.2-33 65.6-34.6 4.9-3.3 5.2-3 1.6 1.7-2 2.7-66.4 125-66.4 126.2 0 .2 4.3 5.2 9.6 11.1s15.2 17.6 22.1 26c8.5 10.3 13 15.1 14 14.8 1.3-.5 194.1-121.8 202.1-127.1l3.2-2.2-4.2-5.4c-7.5-9.6-34-41.9-34.4-41.9-1.1 0-130.7 85.7-134.6 89-2.6 2.2-4.9 4-5.3 4-.3 0 1.2-2.6 3.3-5.8 2.2-3.1 16.6-31.1 32.2-62.1l28.3-56.3-19.9-19.9c-10.9-11-20.4-19.9-21.1-19.9-1.8 0-115.1 56.7-120 60.1-4.8 3.3-5.8 2.6-1.7-1.2 2.7-2.4 90.4-133.2 90.4-134.7 0-.4-2.1-2.6-4.7-4.7-10.3-8.7-41.7-33.5-42.4-33.5-.3 0-1.7 1.7-3.1 3.7M454.5 329.6c-23.5 5.7-48.8 27.2-104.5 88.9-21 23.3-52.3 60.4-64.1 76l-4.2 5.6 2.9 2.9c1.6 1.6 41.2 38.9 87.9 83l85 80 5-5.3c2.8-2.9 19.2-20.6 36.6-39.2 17.4-18.7 44.6-47.5 60.4-64 40.3-42 46.1-49 54.5-66.7 5.4-11.2 7.4-19.4 7.4-30.3 0-28.1-21-54.3-48.4-60.1-12.3-2.6-27.9-1.3-39.4 3.2l-3.8 1.5.7-2.8c2.9-11.3 2.4-24.1-1.5-34.9-6.3-18.1-22.8-33.1-41.5-37.9-7.5-1.9-24.9-1.8-33 .1m23.1 50.5c3.7 1.1 9.7 6.7 12 11 4 7.8 2.5 18.1-4 28.3-4.5 7.1-31.3 36-82.3 89l-13.4 13.8-8.2-7.8c-27.3-26-26-24.7-24.5-27 4.3-7.1 44.3-51.7 68.2-76.1 30.4-31.1 37.8-35.5 52.2-31.2m76.7 61.8c4 1.6 9.9 7.3 11.8 11.6 3.7 8 1.8 16.9-5.6 27.7-4.7 6.6-98.2 106.8-99.8 106.8-1.5 0-35.5-32.4-35.4-33.6.2-1.2 75-79.7 92.9-97.5 11.8-11.8 19-15.9 27.9-15.9 3.2 0 6.9.4 8.2.9m445.7-23.8c-180.8 6.2-351.4 95.6-461.2 241.8-64.3 85.5-105.3 188.2-117.2 293.6-5.1 44.7-5.1 95.6 0 140 20.6 181.8 123.8 345.7 279.4 443.7 61.6 38.8 130.9 66.7 201 80.8 43.7 8.8 77.1 12.1 123 12.1 35.9 0 63.1-2.1 95-7.1 155.4-24.8 294.2-108.6 389.9-235.8 57-75.7 96-166.5 112-261.2 9.3-55.1 10.9-114.3 4.5-171.5-24-215.2-165.1-403.9-365.6-488.9-66.6-28.2-142.3-45.3-209.8-47.2-9.6-.2-20.4-.6-24-.7-3.6-.2-15.7 0-27 .4m76.5 34.5c226.6 20 422.7 176.8 493.3 394.4 16.8 51.9 25.6 102.2 27.8 159.2l.7 17.8H1024v574.3l-17.7-.7c-94.8-3.6-181.9-27.8-262.1-72.8-98.9-55.4-180.9-140.6-231.6-240.8-38.7-76.3-58.8-154.6-62.2-242.3l-.7-17.7H1024V449.7l17.8.7c9.7.4 25.4 1.3 34.7 2.2"/></svg>