<svg xmlns="http://www.w3.org/2000/svg" width="970.667" height="509.333" version="1.0" viewBox="0 0 728 382"><path d="M304 40.1c-23.8 1.9-70.9 8-85 11-5.2 1.1-13.9 2.9-19.4 4-45.6 9.1-96.6 27.8-131.1 48-25.1 14.7-46.9 36.4-56.9 56.7-5.2 10.3-6.9 18-6.9 30.7 0 9.8.4 12 3.2 19.9 7.1 20.1 19.8 36.1 42.7 53.6 5 3.9 9.4 7 9.8 7s2.1 1 3.9 2.2 4.5 3.1 6.1 4.1c3.8 2.6 30.8 16.3 33.8 17.2 1.3.4 4.8 1.8 7.8 3 22.6 9.6 59.5 20.9 85.5 26.4 25.7 5.3 54.6 10.2 70 11.7 2.8.3 11.3 1.1 19 1.9 49.7 5 118.5 4.3 170-1.5 48-5.5 99.4-16.3 130.5-27.4 8.8-3.2 17.7-6.5 20.5-7.6 1.1-.4 5.7-2.3 10.3-4 4.5-1.8 8.5-3.6 8.8-4.1s1.6-.9 3-.9c1.3 0 2.4-.4 2.4-.8 0-.5 1.8-1.5 4-2.2s4-1.7 4-2.2c0-.4.8-.8 1.8-.8s2.2-.4 2.7-.9c.6-.5 3.7-2.3 7-4.1s6.9-4.1 8.1-5.1c1.1-1 2.6-1.9 3.2-1.9.7 0 1.2-.3 1.2-.8 0-.4 1.7-1.5 3.8-2.5 9.2-4.5 30-23.2 38.6-34.7 8.6-11.7 10-14.2 13.8-25 3-8.7 3.3-10.5 3.2-21 0-9-.5-13.1-2.3-19-2.3-7.5-7.9-19.6-10.3-22.1-.7-.8-3.1-3.9-5.4-6.9-13.3-17.9-39.1-37.1-68.4-50.8-22.6-10.7-26.8-12.4-48.3-19.7-21.9-7.5-28.8-9.4-58.2-16-29.7-6.7-64-11.6-103.5-15.1-18.4-1.5-104.4-1.8-123-.3M420 50c20.2 1.4 61.2 6.5 81 10 38.6 6.8 80 18.7 111.7 32 12.3 5.2 34.9 17 42.8 22.3 25.4 17.1 43.7 38.1 49.6 56.7 12.3 38.6-15.4 78.4-74.8 107.9-25.2 12.5-38.9 17.7-72.3 27.5-39.3 11.5-90.9 19.7-148.8 23.6-43.9 2.9-124.4-.4-159.2-6.6-4.7-.8-12.9-2.2-18.3-2.9-22.4-3.3-61.6-12.4-81.2-19-11.3-3.8-33.4-11.9-38.5-14.2-65.2-29.2-97.9-64.8-94.5-102.8 1.2-13.4 4.7-22.2 14-35.5 8.8-12.5 28.7-29.5 47-40C135.9 76 222.8 54.4 320 49c19.2-1 80.4-.4 100 1"/><path d="M323.5 57.1c-13.5.7-34.9 2.4-56 4.5-16.4 1.6-50.6 7-63 9.9-5.5 1.3-13.6 3.1-18 4-27.1 5.6-67 19.7-93.5 33-14 7-35.3 21.8-44.5 30.9-10 9.9-14.4 15.9-19.5 27-14.8 31.5.5 64.2 43.5 92.3 9.3 6.1 33.5 19.3 35.3 19.3.6 0 4.2 1.4 7.9 3.1 25.6 11.7 65.7 22.8 113.8 31.4 14.2 2.6 28 4.3 56.5 7.2 24.5 2.4 30.2 2.6 74.5 2.6 37.8 0 51.8-.3 66-1.7 24.5-2.3 57.5-6.3 66-8.1 3.9-.8 14.4-2.8 23.5-4.6 53.7-10.2 103.9-29 137-51.2 13.6-9.1 31-26.4 37.1-36.8 16.2-27.7 9.2-57.3-19.9-84-19.4-17.8-57.3-37.5-95.2-49.6C504.7 64 408.3 52.8 323.5 57.1m158.5 62c4.3 6 2.1 16.9-4.3 21.4-3.3 2.3-9 1.9-11.5-.8-3.6-3.8-4.5-8.4-2.6-13.9 2.1-6.4 6.2-9.8 11.9-9.8 3.7 0 4.7.4 6.5 3.1m-298.4.4c7.2 2.1 10.7 6.2 10.8 12.4.2 11.2-10.9 16.7-19.2 9.6-2.4-2.1-2.7-3-2.6-8.4l.1-6.1-5.4-1.6c-3.8-1.1-7-1.4-10.6-.9-31.2 4.3-59.4 37-62.3 72.1-1.4 17.5 5.9 29.8 19.8 33.2 10.9 2.7 21.1.8 36.1-6.8 9.1-4.7 13.7-6.1 13.7-4.2 0 2.2-9.4 9.9-16.5 13.5-22.6 11.4-47.1 10-63.1-3.7-5.2-4.4-11-16-12.3-24.3-2.1-13.7 2.7-31.3 12.3-44.7 14.8-20.7 37-35.2 61.2-40 9.6-2 31.7-2 38-.1m376.3 32c7.3 4 10.1 8.4 10.1 15.8 0 7-2.1 11.6-8.2 17.4-8.3 8-20.2 12.5-42.7 16.2-3.5.6-6.6 1.3-6.9 1.6-.4.3-.6 3.2-.7 6.3 0 7.8 2.4 12.3 8.2 15.2 7.9 3.9 19.2 1.3 29.6-7 2.7-2.2 6.1-4 7.4-4h2.4l-2.3 4.1c-6 10.8-20.5 19.6-34 20.6-20.3 1.5-31.8-9.5-31.7-30.7 0-8.2 3.3-21 7.4-29.1 2.6-4.9 11.4-14.7 16.8-18.8 11.3-8.3 19.9-11.2 31.7-10.8 6.1.3 8.6.9 12.9 3.2m-158.2-.7c3.4 2.2 3.6 14.1.3 25.2-2 6.8-.9 6.4 3.2-1 8.6-15.4 23.1-26.2 30.9-23 4 1.7 5.9 4.7 5.9 9.3 0 7.7-4.4 13.7-10.2 13.7-3.5 0-7.8-3.8-8-7.3-.1-1.5-.5-2.7-.8-2.7-1.8 0-8.4 5.7-11.1 9.6-3.4 5.1-12.7 24.2-16.3 33.8-1.3 3.4-3.2 8.1-4.4 10.6-1.1 2.5-2.8 6.9-3.8 9.7l-1.9 5.3h-8.3c-7.6 0-8.3-.2-7.8-1.8 4-12.5 16.6-61.8 16.6-65 0-4.8-5.7-1-13 8.7-1.6 2.1-3.2 3.2-4.3 3-1.6-.3-1.2-1.3 2.8-7.4 5.7-8.5 8.7-11.8 14.3-15.7 6.6-4.5 13.3-6.7 15.9-5m218.9.6c1.6 1.2 1.9 2.6 1.8 9.3-.1 4.3-.9 10.7-1.8 14.2-1 3.5-1.5 6.6-1.2 6.9s.6.1.6-.5c0-2.3 11.9-19.1 16.4-23 5.3-4.6 13-7.7 16.9-6.8 3.1.8 6.2 4.2 7 7.6 1.6 6.5-4.4 15.9-10.1 15.9-3.8 0-8.2-3.5-8.2-6.5 0-3.5-1.2-3.7-5.2-1-7.2 4.9-16.3 22.5-30.2 58.1-2.7 6.8-3 7.2-6.5 7.8-2 .3-5.8.6-8.4.6-4.2 0-4.8-.2-4.3-1.8 3.9-12.3 16.6-62.1 16.6-65 0-4.8-5.5-1.5-11 6.7-2.5 3.7-4.1 5.1-5.8 5.1-2.7 0-2.7.2 1.3-6.4 6-9.9 14.2-17.3 23-20.9 5-2 6.6-2.1 9.1-.3M320 152.9c1.4 2.8 1.3 9.6-.5 18.8-.8 4.3-1.5 8.4-1.5 9.2s2.3-2.4 5.1-7c10.5-17.4 22-25 31.2-20.8 4.7 2.1 6.1 9.2 3.1 15.5-2.2 4.5-5 6.4-9.5 6.4-4.3 0-7.9-3.5-7.9-7.7 0-2-.3-2.2-1.9-1.3-3.1 1.6-8.2 7.1-11.8 12.8-3.6 5.6-13.2 26.6-20.3 44.4l-4.3 10.8h-7.9c-7.1 0-7.9-.2-7.4-1.8.3-.9 1-3.5 1.5-5.7s2.5-9.9 4.5-17c7.3-26.5 10.8-42.8 9.4-43.6-1.9-1.2-4.7 1-9.9 7.7-4.3 5.5-7.9 8-7.9 5.4 0-2.2 9.3-15.1 13.7-18.9 9-8 20-11.5 22.3-7.2m157 .6c0 .8-2 7.4-4.4 14.7-9.1 27.6-16.3 53.4-15.2 54.6 1.4 1.3 9.4-4.1 13-8.9 2.2-2.8 4.6-4.9 5.7-4.9 1 0 1.9.2 1.9.6 0 1.4-9.7 15.1-13.2 18.6-7.7 7.7-18.6 10.8-24.9 7.1-6.4-3.8-5.9-8.7 4.3-38.8 4.4-13.1 14.4-40 15.9-42.8.8-1.4 2.4-1.7 8.9-1.7 6.3 0 8 .3 8 1.5m-234.7 1.8 4.5 2.3 1.1-2.3c1-2.1 1.6-2.3 9.6-2.3 5.1 0 8.5.4 8.5 1s-1.8 6.3-4.1 12.8c-7.3 21.2-16.8 55.6-15.7 56.8 1.3 1.3 9.7-4.7 12.9-9.1 1.8-2.5 4-4.5 5.1-4.5 2.5 0 2.3.8-1.8 7.6-9.1 15.2-24 23.8-33.2 19-3.9-2-4.3-2.7-5.1-8.7l-.6-5-5.5 5.1c-11.1 10.3-19.9 13.6-28.5 10.7-5.9-2.1-9-5.8-11.1-13.4-5.6-20.4 5.6-45.2 27.5-61.2 14.2-10.3 27.2-13.4 36.4-8.8"/><path d="M540 155.7c-7 2.5-15 12.1-19.4 23.4-2.9 7.5-4.9 14.9-4.2 15.6 1 1 12.3-2 18.3-4.8 7.1-3.4 15.7-11.5 18.4-17.4 4.4-9.7 1.1-17.6-7.3-17.4-2.4 0-5 .3-5.8.6m-309.2 3.7c-5.5 2-8 3.9-13 9.8-5.9 7-9.7 12.8-14.1 21.3-4.8 9.5-6.1 13.9-6 21.2.1 14.4 9.1 15.9 21.9 3.7 13.2-12.6 23.4-33.3 23.4-47.4 0-5.1-.3-6.1-2.6-7.9-3.1-2.4-4.5-2.5-9.6-.7"/></svg>