<?xml version="1.0" standalone="no"?>
<!DOCTYPE svg PUBLIC "-//W3C//DTD SVG 20010904//EN"
 "http://www.w3.org/TR/2001/REC-SVG-20010904/DTD/svg10.dtd">
<svg version="1.0" xmlns="http://www.w3.org/2000/svg"
 width="728.000000pt" height="382.000000pt" viewBox="0 0 728.000000 382.000000"
 preserveAspectRatio="xMidYMid meet">

<g transform="translate(0.000000,382.000000) scale(0.100000,-0.100000)"
fill="#000000" stroke="none">
<path d="M3040 3419 c-238 -19 -709 -80 -850 -110 -52 -11 -139 -29 -194 -40
-456 -91 -966 -278 -1311 -480 -251 -147 -469 -364 -569 -567 -52 -103 -69
-180 -69 -307 0 -98 4 -120 32 -199 71 -201 198 -361 427 -536 50 -39 94 -70
98 -70 4 0 21 -10 39 -22 18 -12 45 -31 61 -41 38 -26 308 -163 338 -172 13
-4 48 -18 78 -30 226 -96 595 -209 855 -264 257 -53 546 -102 700 -117 28 -3
113 -11 190 -19 497 -50 1185 -43 1700 15 480 55 994 163 1305 274 88 32 177
65 205 76 11 4 57 23 103 40 45 18 85 36 88 41 3 5 16 9 30 9 13 0 24 4 24 8
0 5 18 15 40 22 22 7 40 17 40 22 0 4 8 8 18 8 10 0 22 4 27 9 6 5 37 23 70
41 33 18 69 41 81 51 11 10 26 19 32 19 7 0 12 3 12 8 0 4 17 15 38 25 92 45
300 232 386 347 86 117 100 142 138 250 30 87 33 105 32 210 0 90 -5 131 -23
190 -23 75 -79 196 -103 221 -7 8 -31 39 -54 69 -133 179 -391 371 -684 508
-226 107 -268 124 -483 197 -219 75 -288 94 -582 160 -297 67 -640 116 -1035
151 -184 15 -1044 18 -1230 3z m1160 -99 c202 -14 612 -65 810 -100 386 -68
800 -187 1117 -320 123 -52 349 -170 428 -223 254 -171 437 -381 496 -567 123
-386 -154 -784 -748 -1079 -252 -125 -389 -177 -723 -275 -393 -115 -909 -197
-1488 -236 -439 -29 -1244 4 -1592 66 -47 8 -129 22 -183 29 -224 33 -616 124
-812 190 -113 38 -334 119 -385 142 -652 292 -979 648 -945 1028 12 134 47
222 140 355 88 125 287 295 470 400 574 330 1443 546 2415 600 192 10 804 4
1000 -10z"/>
<path d="M3235 3249 c-135 -7 -349 -24 -560 -45 -164 -16 -506 -70 -630 -99
-55 -13 -136 -31 -180 -40 -271 -56 -670 -197 -935 -330 -140 -70 -353 -218
-445 -309 -100 -99 -144 -159 -195 -270 -148 -315 5 -642 435 -923 93 -61 335
-193 353 -193 6 0 42 -14 79 -31 256 -117 657 -228 1138 -314 142 -26 280 -43
565 -72 245 -24 302 -26 745 -26 378 0 518 3 660 17 245 23 575 63 660 81 39
8 144 28 235 46 537 102 1039 290 1370 512 136 91 310 264 371 368 162 277 92
573 -199 840 -194 178 -573 375 -952 496 -703 223 -1667 335 -2515 292z m1585
-620 c43 -60 21 -169 -43 -214 -33 -23 -90 -19 -115 8 -36 38 -45 84 -26 139
21 64 62 98 119 98 37 0 47 -4 65 -31z m-2984 -4 c72 -21 107 -62 108 -124 2
-112 -109 -167 -192 -96 -24 21 -27 30 -26 84 l1 61 -54 16 c-38 11 -70 14
-106 9 -312 -43 -594 -370 -623 -721 -14 -175 59 -298 198 -332 109 -27 211
-8 361 68 91 47 137 61 137 42 0 -22 -94 -99 -165 -135 -226 -114 -471 -100
-631 37 -52 44 -110 160 -123 243 -21 137 27 313 123 447 148 207 370 352 612
400 96 20 317 20 380 1z m3763 -320 c73 -40 101 -84 101 -158 0 -70 -21 -116
-82 -174 -83 -80 -202 -125 -427 -162 -35 -6 -66 -13 -69 -16 -4 -3 -6 -32 -7
-63 0 -78 24 -123 82 -152 79 -39 192 -13 296 70 27 22 61 40 74 40 l24 0 -23
-41 c-60 -108 -205 -196 -340 -206 -203 -15 -318 95 -317 307 0 82 33 210 74
291 26 49 114 147 168 188 113 83 199 112 317 108 61 -3 86 -9 129 -32z
m-1582 7 c34 -22 36 -141 3 -252 -20 -68 -9 -64 32 10 86 154 231 262 309 230
40 -17 59 -47 59 -93 0 -77 -44 -137 -102 -137 -35 0 -78 38 -80 73 -1 15 -5
27 -8 27 -18 0 -84 -57 -111 -96 -34 -51 -127 -242 -163 -338 -13 -34 -32 -81
-44 -106 -11 -25 -28 -69 -38 -97 l-19 -53 -83 0 c-76 0 -83 2 -78 18 40 125
166 618 166 650 0 48 -57 10 -130 -87 -16 -21 -32 -32 -43 -30 -16 3 -12 13
28 74 57 85 87 118 143 157 66 45 133 67 159 50z m2189 -6 c16 -12 19 -26 18
-93 -1 -43 -9 -107 -18 -142 -10 -35 -15 -66 -12 -69 3 -3 6 -1 6 5 0 23 119
191 164 230 53 46 130 77 169 68 31 -8 62 -42 70 -76 16 -65 -44 -159 -101
-159 -38 0 -82 35 -82 65 0 35 -12 37 -52 10 -72 -49 -163 -225 -302 -581 -27
-68 -30 -72 -65 -78 -20 -3 -58 -6 -84 -6 -42 0 -48 2 -43 18 39 123 166 621
166 650 0 48 -55 15 -110 -67 -25 -37 -41 -51 -58 -51 -27 0 -27 -2 13 64 60
99 142 173 230 209 50 20 66 21 91 3z m-3006 -15 c14 -28 13 -96 -5 -188 -8
-43 -15 -84 -15 -92 0 -8 23 24 51 70 105 174 220 250 312 208 47 -21 61 -92
31 -155 -22 -45 -50 -64 -95 -64 -43 0 -79 35 -79 77 0 20 -3 22 -19 13 -31
-16 -82 -71 -118 -128 -36 -56 -132 -266 -203 -444 l-43 -108 -79 0 c-71 0
-79 2 -74 18 3 9 10 35 15 57 5 22 25 99 45 170 73 265 108 428 94 436 -19 12
-47 -10 -99 -77 -43 -55 -79 -80 -79 -54 0 22 93 151 137 189 90 80 200 115
223 72z m1570 -6 c0 -8 -20 -74 -44 -147 -91 -276 -163 -534 -152 -546 14 -13
94 41 130 89 22 28 46 49 57 49 10 0 19 -2 19 -6 0 -14 -97 -151 -132 -186
-77 -77 -186 -108 -249 -71 -64 38 -59 87 43 388 44 131 144 400 159 428 8 14
24 17 89 17 63 0 80 -3 80 -15z m-2347 -18 l45 -23 11 23 c10 21 16 23 96 23
51 0 85 -4 85 -10 0 -6 -18 -63 -41 -128 -73 -212 -168 -556 -157 -568 13 -13
97 47 129 91 18 25 40 45 51 45 25 0 23 -8 -18 -76 -91 -152 -240 -238 -332
-190 -39 20 -43 27 -51 87 l-6 50 -55 -51 c-111 -103 -199 -136 -285 -107 -59
21 -90 58 -111 134 -56 204 56 452 275 612 142 103 272 134 364 88z"/>
<path d="M5400 2263 c-70 -25 -150 -121 -194 -234 -29 -75 -49 -149 -42 -156
10 -10 123 20 183 48 71 34 157 115 184 174 44 97 11 176 -73 174 -24 0 -50
-3 -58 -6z"/>
<path d="M2308 2226 c-55 -20 -80 -39 -130 -98 -59 -70 -97 -128 -141 -213
-48 -95 -61 -139 -60 -212 1 -144 91 -159 219 -37 132 126 234 333 234 474 0
51 -3 61 -26 79 -31 24 -45 25 -96 7z"/>
</g>
</svg>
